<svg version="1.1" xmlns="http://www.w3.org/2000/svg" xmlns:xlink="http://www.w3.org/1999/xlink" x="0px" y="0px" viewBox="0 0 1000 1000" enable-background="new 0 0 1000 1000" xml:space="preserve">
<g><path d="M976.7,188.3l-165-165c-17.8-17.8-46.7-17.8-64.5,0L98.5,672.1l0,0c-2.8,3.1-4.9,6.7-6.1,10.7l-81.2,272c-2.9,9.6-0.2,20.1,6.9,27.2c7.1,7.1,17.6,9.8,27.2,6.9l272-81.2c4-1.2,7.7-3.3,10.7-6.1l0,0l0.8-0.8l21.7-21.7l626.3-626.3C994.4,235,994.4,206.1,976.7,188.3z M179,669l505-505l152,152L331,821L179,669z M931.5,220.6l-56.7,56.7l-152-152l56.7-56.7L931.5,220.6z M78.1,921.9l62.1-208l145.9,145.9L78.1,921.9z"/></g>
</svg>